<?xml version="1.0" encoding="UTF-8" standalone="no"?>
<!DOCTYPE svg PUBLIC "-//W3C//DTD SVG 1.1//EN" "http://www.w3.org/Graphics/SVG/1.1/DTD/svg11.dtd">
<!-- Generated by Microsoft Visio, SVG Export Fig 2 SIP.svg Page-1 -->
<svg xmlns="http://www.w3.org/2000/svg" xmlns:xlink="http://www.w3.org/1999/xlink" xmlns:ev="http://www.w3.org/2001/xml-events"
		xmlns:v="http://schemas.microsoft.com/visio/2003/SVGExtensions/" width="10.0554in" height="4.45584in"
		viewBox="0 0 723.988 320.82" xml:space="preserve" color-interpolation-filters="sRGB" class="st6">
	<v:documentProperties v:langID="2057" v:metric="true" v:viewMarkup="false"/>

	<style type="text/css">
	<![CDATA[
		.st1 {visibility:visible}
		.st2 {fill:#000000;fill-opacity:0.4;filter:url(#filter_2.6666667461395);stroke:#000000;stroke-linecap:round;stroke-linejoin:round;stroke-opacity:0.4}
		.st3 {fill:#c6d8f0;stroke:#000000;stroke-linecap:round;stroke-linejoin:round;stroke-width:0.24}
		.st4 {fill:#000000;font-family:Arial;font-size:1.00001em;font-weight:bold}
		.st5 {stroke:#000000;stroke-linecap:round;stroke-linejoin:round;stroke-width:2.25}
		.st6 {fill:none;fill-rule:evenodd;font-size:12px;overflow:visible;stroke-linecap:square;stroke-miterlimit:3}
	]]>
	</style>

	<defs id="Filters">
		<filter id="filter_2.6666667461395">
			<feGaussianBlur stdDeviation="2.6666667461395"/>
		</filter>
	</defs>
	<g v:mID="0" v:index="1" v:groupContext="foregroundPage">
		<title>Page-1</title>
		<v:pageProperties v:drawingScale="0.0393701" v:pageScale="0.0393701" v:drawingUnits="24" v:shadowOffsetX="8.50394"
				v:shadowOffsetY="-8.50394"/>
		<g id="shape1-1" v:mID="1" v:groupContext="shape" transform="translate(115.384,-276.302)">
			<title>Rectangle.1535</title>
			<desc>SIP</desc>
			<v:userDefs>
				<v:ud v:nameU="visVersion" v:val="VT0(11):26"/>
			</v:userDefs>
			<v:textBlock v:margins="rect(4,4,4,4)" v:tabSpace="42.5197"/>
			<v:textRect cx="63.7795" cy="299.561" width="127.56" height="42.5197"/>
			<g id="shadow1-2" v:groupContext="shadow" v:shadowOffsetX="2.12132" v:shadowOffsetY="-2.12132" v:shadowType="1"
					transform="matrix(1,0,0,1,2.12132,2.12132)" class="st1">
				<rect x="0" y="278.301" width="127.559" height="42.5197" class="st2"/>
			</g>
			<rect x="0" y="278.301" width="127.559" height="42.5197" class="st3"/>
			<text x="54.11" y="303.16" class="st4" v:langID="2057"><v:paragraph v:horizAlign="1"/><v:tabList/>SIP</text>		</g>
		<g id="shape2-7" v:mID="2" v:groupContext="shape" transform="translate(65.7782,-247.956)">
			<title>Sheet.2</title>
			<path d="M0 320.82 L212.6 320.82" class="st5"/>
		</g>
		<g id="shape3-10" v:mID="3" v:groupContext="shape" transform="translate(-92.0501,186.251) rotate(-90)">
			<title>Sheet.3</title>
			<path d="M0 320.82 L14.17 320.82" class="st5"/>
		</g>
		<g id="shape4-13" v:mID="4" v:groupContext="shape" transform="translate(-141.656,70.4081) rotate(-90)">
			<title>Sheet.4</title>
			<path d="M0 320.82 L25.89 320.82" class="st5"/>
		</g>
		<g id="shape5-16" v:mID="5" v:groupContext="shape" transform="translate(1.99867,-177.089)">
			<title>Rectangle.1539</title>
			<desc>metadata</desc>
			<v:userDefs>
				<v:ud v:nameU="visVersion" v:val="VT0(11):26"/>
			</v:userDefs>
			<v:textBlock v:margins="rect(4,4,4,4)" v:tabSpace="42.5197"/>
			<v:textRect cx="63.7795" cy="299.561" width="127.56" height="42.5197"/>
			<g id="shadow5-17" v:groupContext="shadow" v:shadowOffsetX="2.12132" v:shadowOffsetY="-2.12132" v:shadowType="1"
					transform="matrix(1,0,0,1,2.12132,2.12132)" class="st1">
				<rect x="0" y="278.301" width="127.559" height="42.5197" class="st2"/>
			</g>
			<rect x="0" y="278.301" width="127.559" height="42.5197" class="st3"/>
			<text x="37.77" y="303.16" class="st4" v:langID="2057"><v:paragraph v:horizAlign="1"/><v:tabList/>metadata</text>		</g>
		<g id="shape6-22" v:mID="6" v:groupContext="shape" transform="translate(-42.4438,172.077) rotate(-90)">
			<title>Sheet.6</title>
			<path d="M0 320.82 L28.35 320.82" class="st5"/>
		</g>
		<g id="shape7-25" v:mID="7" v:groupContext="shape" transform="translate(-255.042,101.211) rotate(-90)">
			<title>Sheet.7</title>
			<path d="M0 320.82 L28.35 320.82" class="st5"/>
		</g>
		<g id="shape8-28" v:mID="8" v:groupContext="shape" transform="translate(164.991,-92.0501)">
			<title>Rectangle.1542</title>
			<desc>https://us02web.zoom.us/j/82021748754?pwd=WXdoNjNwcjY2TDVYU3F0RDlMRmlWZz09</desc>
			<v:userDefs>
				<v:ud v:nameU="visVersion" v:val="VT0(11):26"/>
			</v:userDefs>
			<v:textBlock v:margins="rect(4,4,4,4)" v:tabSpace="42.5197"/>
			<v:textRect cx="63.7795" cy="299.561" width="127.56" height="42.5197"/>
			<g id="shadow8-29" v:groupContext="shadow" v:shadowOffsetX="2.12132" v:shadowOffsetY="-2.12132" v:shadowType="1"
					transform="matrix(1,0,0,1,2.12132,2.12132)" class="st1">
				<rect x="0" y="278.301" width="127.559" height="42.5197" class="st2"/>
			</g>
			<rect x="0" y="278.301" width="127.559" height="42.5197" class="st3"/>
			<text x="16.77" y="303.16" class="st4" v:langID="2057"><v:paragraph v:horizAlign="1"/><v:tabList/>representationID</text>		</g>
		<g id="shape9-34" v:mID="9" v:groupContext="shape" transform="translate(214.597,-177.089)">
			<title>Rectangle.1543</title>
			<desc>representations</desc>
			<v:userDefs>
				<v:ud v:nameU="visVersion" v:val="VT0(11):26"/>
			</v:userDefs>
			<v:textBlock v:margins="rect(4,4,4,4)" v:tabSpace="42.5197"/>
			<v:textRect cx="63.7795" cy="299.561" width="127.56" height="42.5197"/>
			<g id="shadow9-35" v:groupContext="shadow" v:shadowOffsetX="2.12132" v:shadowOffsetY="-2.12132" v:shadowType="1"
					transform="matrix(1,0,0,1,2.12132,2.12132)" class="st1">
				<rect x="0" y="278.301" width="127.559" height="42.5197" class="st2"/>
			</g>
			<rect x="0" y="278.301" width="127.559" height="42.5197" class="st3"/>
			<text x="16.77" y="303.16" class="st4" v:langID="2057"><v:paragraph v:horizAlign="1"/><v:tabList/>representations</text>		</g>
		<g id="shape10-40" v:mID="10" v:groupContext="shape" transform="translate(200.424,-49.5304)">
			<title>Rectangle.1544</title>
			<desc>data</desc>
			<v:userDefs>
				<v:ud v:nameU="visVersion" v:val="VT0(11):26"/>
			</v:userDefs>
			<v:textBlock v:margins="rect(4,4,4,4)" v:tabSpace="42.5197"/>
			<v:textRect cx="46.063" cy="306.647" width="92.13" height="28.3465"/>
			<g id="shadow10-41" v:groupContext="shadow" v:shadowOffsetX="2.12132" v:shadowOffsetY="-2.12132" v:shadowType="1"
					transform="matrix(1,0,0,1,2.12132,2.12132)" class="st1">
				<rect x="0" y="292.474" width="92.126" height="28.3465" class="st2"/>
			</g>
			<rect x="0" y="292.474" width="92.126" height="28.3465" class="st3"/>
			<text x="33.06" y="310.25" class="st4" v:langID="2057"><v:paragraph v:horizAlign="1"/><v:tabList/>data</text>		</g>
		<g id="shape11-46" v:mID="11" v:groupContext="shape" transform="translate(200.424,-7.01072)">
			<title>Rectangle.1545</title>
			<desc>metadata</desc>
			<v:userDefs>
				<v:ud v:nameU="visVersion" v:val="VT0(11):26"/>
			</v:userDefs>
			<v:textBlock v:margins="rect(4,4,4,4)" v:tabSpace="42.5197"/>
			<v:textRect cx="46.063" cy="306.647" width="92.13" height="28.3465"/>
			<g id="shadow11-47" v:groupContext="shadow" v:shadowOffsetX="2.12132" v:shadowOffsetY="-2.12132" v:shadowType="1"
					transform="matrix(1,0,0,1,2.12132,2.12132)" class="st1">
				<rect x="0" y="292.474" width="92.126" height="28.3465" class="st2"/>
			</g>
			<rect x="0" y="292.474" width="92.126" height="28.3465" class="st3"/>
			<text x="20.06" y="310.25" class="st4" v:langID="2057"><v:paragraph v:horizAlign="1"/><v:tabList/>metadata</text>		</g>
		<g id="shape12-52" v:mID="12" v:groupContext="shape" transform="translate(-134.57,299.636) rotate(-90)">
			<title>Sheet.12</title>
			<path d="M0 320.82 L70.87 320.82" class="st5"/>
		</g>
		<g id="shape13-55" v:mID="13" v:groupContext="shape" transform="translate(653.967,492.898) rotate(180)">
			<title>Sheet.13</title>
			<path d="M0 320.82 L425.2 320.82" class="st5"/>
		</g>
		<g id="shape14-58" v:mID="14" v:groupContext="shape" transform="translate(-42.4438,101.211) rotate(-90)">
			<title>Sheet.14</title>
			<path d="M0 320.82 L28.35 320.82" class="st5"/>
		</g>
		<g id="shape15-61" v:mID="15" v:groupContext="shape" transform="translate(200.424,620.457) rotate(180)">
			<title>Sheet.15</title>
			<path d="M0 320.82 L14.17 320.82" class="st5"/>
		</g>
		<g id="shape16-64" v:mID="16" v:groupContext="shape" transform="translate(200.424,577.937) rotate(180)">
			<title>Sheet.16</title>
			<path d="M0 320.82 L14.17 320.82" class="st5"/>
		</g>
		<g id="shape17-67" v:mID="17" v:groupContext="shape" transform="translate(306.723,-92.0501)">
			<title>Rectangle.1551</title>
			<desc>representationID</desc>
			<v:userDefs>
				<v:ud v:nameU="visVersion" v:val="VT0(11):26"/>
			</v:userDefs>
			<v:textBlock v:margins="rect(4,4,4,4)" v:tabSpace="42.5197"/>
			<v:textRect cx="63.7795" cy="299.561" width="127.56" height="42.5197"/>
			<g id="shadow17-68" v:groupContext="shadow" v:shadowOffsetX="2.12132" v:shadowOffsetY="-2.12132" v:shadowType="1"
					transform="matrix(1,0,0,1,2.12132,2.12132)" class="st1">
				<rect x="0" y="278.301" width="127.559" height="42.5197" class="st2"/>
			</g>
			<rect x="0" y="278.301" width="127.559" height="42.5197" class="st3"/>
			<text x="16.77" y="303.16" class="st4" v:langID="2057"><v:paragraph v:horizAlign="1"/><v:tabList/>representationID</text>		</g>
		<g id="shape18-73" v:mID="18" v:groupContext="shape" transform="translate(342.156,-49.5304)">
			<title>Rectangle.1552</title>
			<desc>data</desc>
			<v:userDefs>
				<v:ud v:nameU="visVersion" v:val="VT0(11):26"/>
			</v:userDefs>
			<v:textBlock v:margins="rect(4,4,4,4)" v:tabSpace="42.5197"/>
			<v:textRect cx="46.063" cy="306.647" width="92.13" height="28.3465"/>
			<g id="shadow18-74" v:groupContext="shadow" v:shadowOffsetX="2.12132" v:shadowOffsetY="-2.12132" v:shadowType="1"
					transform="matrix(1,0,0,1,2.12132,2.12132)" class="st1">
				<rect x="0" y="292.474" width="92.126" height="28.3465" class="st2"/>
			</g>
			<rect x="0" y="292.474" width="92.126" height="28.3465" class="st3"/>
			<text x="33.06" y="310.25" class="st4" v:langID="2057"><v:paragraph v:horizAlign="1"/><v:tabList/>data</text>		</g>
		<g id="shape19-79" v:mID="19" v:groupContext="shape" transform="translate(342.156,-7.01072)">
			<title>Rectangle.1553</title>
			<desc>metadata</desc>
			<v:userDefs>
				<v:ud v:nameU="visVersion" v:val="VT0(11):26"/>
			</v:userDefs>
			<v:textBlock v:margins="rect(4,4,4,4)" v:tabSpace="42.5197"/>
			<v:textRect cx="46.063" cy="306.647" width="92.13" height="28.3465"/>
			<g id="shadow19-80" v:groupContext="shadow" v:shadowOffsetX="2.12132" v:shadowOffsetY="-2.12132" v:shadowType="1"
					transform="matrix(1,0,0,1,2.12132,2.12132)" class="st1">
				<rect x="0" y="292.474" width="92.126" height="28.3465" class="st2"/>
			</g>
			<rect x="0" y="292.474" width="92.126" height="28.3465" class="st3"/>
			<text x="20.06" y="310.25" class="st4" v:langID="2057"><v:paragraph v:horizAlign="1"/><v:tabList/>metadata</text>		</g>
		<g id="shape20-85" v:mID="20" v:groupContext="shape" transform="translate(7.16249,299.636) rotate(-90)">
			<title>Sheet.20</title>
			<path d="M0 320.82 L70.87 320.82" class="st5"/>
		</g>
		<g id="shape21-88" v:mID="21" v:groupContext="shape" transform="translate(342.156,620.457) rotate(180)">
			<title>Sheet.21</title>
			<path d="M0 320.82 L14.17 320.82" class="st5"/>
		</g>
		<g id="shape22-91" v:mID="22" v:groupContext="shape" transform="translate(342.156,577.937) rotate(180)">
			<title>Sheet.22</title>
			<path d="M0 320.82 L14.17 320.82" class="st5"/>
		</g>
		<g id="shape23-94" v:mID="23" v:groupContext="shape" transform="translate(448.455,-91.2807)">
			<title>Rectangle.1557</title>
			<desc>...</desc>
			<v:userDefs>
				<v:ud v:nameU="visVersion" v:val="VT0(11):26"/>
			</v:userDefs>
			<v:textBlock v:margins="rect(4,4,4,4)" v:tabSpace="42.5197"/>
			<v:textRect cx="63.7795" cy="299.561" width="127.56" height="42.5197"/>
			<g id="shadow23-95" v:groupContext="shadow" v:shadowOffsetX="2.12132" v:shadowOffsetY="-2.12132" v:shadowType="1"
					transform="matrix(1,0,0,1,2.12132,2.12132)" class="st1">
				<rect x="0" y="278.301" width="127.559" height="42.5197" class="st2"/>
			</g>
			<rect x="0" y="278.301" width="127.559" height="42.5197" class="st3"/>
			<text x="58.78" y="303.16" class="st4" v:langID="2057"><v:paragraph v:horizAlign="1"/><v:tabList/>...</text>		</g>
		<g id="shape24-100" v:mID="24" v:groupContext="shape" transform="translate(483.888,-48.761)">
			<title>Rectangle.1558</title>
			<desc>...</desc>
			<v:userDefs>
				<v:ud v:nameU="visVersion" v:val="VT0(11):26"/>
			</v:userDefs>
			<v:textBlock v:margins="rect(4,4,4,4)" v:tabSpace="42.5197"/>
			<v:textRect cx="46.063" cy="306.647" width="92.13" height="28.3465"/>
			<g id="shadow24-101" v:groupContext="shadow" v:shadowOffsetX="2.12132" v:shadowOffsetY="-2.12132" v:shadowType="1"
					transform="matrix(1,0,0,1,2.12132,2.12132)" class="st1">
				<rect x="0" y="292.474" width="92.126" height="28.3465" class="st2"/>
			</g>
			<rect x="0" y="292.474" width="92.126" height="28.3465" class="st3"/>
			<text x="41.06" y="310.25" class="st4" v:langID="2057"><v:paragraph v:horizAlign="1"/><v:tabList/>...</text>		</g>
		<g id="shape25-106" v:mID="25" v:groupContext="shape" transform="translate(483.888,-6.24132)">
			<title>Rectangle.1559</title>
			<desc>...</desc>
			<v:userDefs>
				<v:ud v:nameU="visVersion" v:val="VT0(11):26"/>
			</v:userDefs>
			<v:textBlock v:margins="rect(4,4,4,4)" v:tabSpace="42.5197"/>
			<v:textRect cx="46.063" cy="306.647" width="92.13" height="28.3465"/>
			<g id="shadow25-107" v:groupContext="shadow" v:shadowOffsetX="2.12132" v:shadowOffsetY="-2.12132" v:shadowType="1"
					transform="matrix(1,0,0,1,2.12132,2.12132)" class="st1">
				<rect x="0" y="292.474" width="92.126" height="28.3465" class="st2"/>
			</g>
			<rect x="0" y="292.474" width="92.126" height="28.3465" class="st3"/>
			<text x="41.06" y="310.25" class="st4" v:langID="2057"><v:paragraph v:horizAlign="1"/><v:tabList/>...</text>		</g>
		<g id="shape26-112" v:mID="26" v:groupContext="shape" transform="translate(148.895,300.406) rotate(-90)">
			<title>Sheet.26</title>
			<path d="M0 320.82 L70.87 320.82" class="st5"/>
		</g>
		<g id="shape27-115" v:mID="27" v:groupContext="shape" transform="translate(483.888,621.226) rotate(180)">
			<title>Sheet.27</title>
			<path d="M0 320.82 L14.17 320.82" class="st5"/>
		</g>
		<g id="shape28-118" v:mID="28" v:groupContext="shape" transform="translate(483.888,578.707) rotate(180)">
			<title>Sheet.28</title>
			<path d="M0 320.82 L14.17 320.82" class="st5"/>
		</g>
		<g id="shape29-121" v:mID="29" v:groupContext="shape" transform="translate(590.188,-91.2807)">
			<title>Rectangle.1563</title>
			<desc>representationID</desc>
			<v:userDefs>
				<v:ud v:nameU="visVersion" v:val="VT0(11):26"/>
			</v:userDefs>
			<v:textBlock v:margins="rect(4,4,4,4)" v:tabSpace="42.5197"/>
			<v:textRect cx="63.7795" cy="299.561" width="127.56" height="42.5197"/>
			<g id="shadow29-122" v:groupContext="shadow" v:shadowOffsetX="2.12132" v:shadowOffsetY="-2.12132" v:shadowType="1"
					transform="matrix(1,0,0,1,2.12132,2.12132)" class="st1">
				<rect x="0" y="278.301" width="127.559" height="42.5197" class="st2"/>
			</g>
			<rect x="0" y="278.301" width="127.559" height="42.5197" class="st3"/>
			<text x="15.77" y="303.16" class="st4" v:langID="2057"><v:paragraph v:horizAlign="1"/><v:tabList/>representationID</text>		</g>
		<g id="shape30-127" v:mID="30" v:groupContext="shape" transform="translate(625.621,-48.761)">
			<title>Rectangle.1564</title>
			<desc>data</desc>
			<v:userDefs>
				<v:ud v:nameU="visVersion" v:val="VT0(11):26"/>
			</v:userDefs>
			<v:textBlock v:margins="rect(4,4,4,4)" v:tabSpace="42.5197"/>
			<v:textRect cx="46.063" cy="306.647" width="92.13" height="28.3465"/>
			<g id="shadow30-128" v:groupContext="shadow" v:shadowOffsetX="2.12132" v:shadowOffsetY="-2.12132" v:shadowType="1"
					transform="matrix(1,0,0,1,2.12132,2.12132)" class="st1">
				<rect x="0" y="292.474" width="92.126" height="28.3465" class="st2"/>
			</g>
			<rect x="0" y="292.474" width="92.126" height="28.3465" class="st3"/>
			<text x="33.06" y="310.25" class="st4" v:langID="2057"><v:paragraph v:horizAlign="1"/><v:tabList/>data</text>		</g>
		<g id="shape31-133" v:mID="31" v:groupContext="shape" transform="translate(625.621,-6.24132)">
			<title>Rectangle.1565</title>
			<desc>metadata</desc>
			<v:userDefs>
				<v:ud v:nameU="visVersion" v:val="VT0(11):26"/>
			</v:userDefs>
			<v:textBlock v:margins="rect(4,4,4,4)" v:tabSpace="42.5197"/>
			<v:textRect cx="46.063" cy="306.647" width="92.13" height="28.3465"/>
			<g id="shadow31-134" v:groupContext="shadow" v:shadowOffsetX="2.12132" v:shadowOffsetY="-2.12132" v:shadowType="1"
					transform="matrix(1,0,0,1,2.12132,2.12132)" class="st1">
				<rect x="0" y="292.474" width="92.126" height="28.3465" class="st2"/>
			</g>
			<rect x="0" y="292.474" width="92.126" height="28.3465" class="st3"/>
			<text x="20.06" y="310.25" class="st4" v:langID="2057"><v:paragraph v:horizAlign="1"/><v:tabList/>metadata</text>		</g>
		<g id="shape32-139" v:mID="32" v:groupContext="shape" transform="translate(290.627,300.406) rotate(-90)">
			<title>Sheet.32</title>
			<path d="M0 320.82 L70.87 320.82" class="st5"/>
		</g>
		<g id="shape33-142" v:mID="33" v:groupContext="shape" transform="translate(625.621,621.226) rotate(180)">
			<title>Sheet.33</title>
			<path d="M0 320.82 L14.17 320.82" class="st5"/>
		</g>
		<g id="shape34-145" v:mID="34" v:groupContext="shape" transform="translate(625.621,578.707) rotate(180)">
			<title>Sheet.34</title>
			<path d="M0 320.82 L14.17 320.82" class="st5"/>
		</g>
		<g id="shape35-148" v:mID="35" v:groupContext="shape" transform="translate(49.6822,186.251) rotate(-90)">
			<title>Sheet.35</title>
			<path d="M0 320.82 L14.17 320.82" class="st5"/>
		</g>
		<g id="shape36-151" v:mID="36" v:groupContext="shape" transform="translate(191.414,187.02) rotate(-90)">
			<title>Sheet.36</title>
			<path d="M0 320.82 L14.17 320.82" class="st5"/>
		</g>
		<g id="shape37-154" v:mID="37" v:groupContext="shape" transform="translate(974.788,172.077) rotate(90)">
			<title>Sheet.37</title>
			<path d="M0 320.82 L14.94 320.82" class="st5"/>
		</g>
	</g>
</svg>
